<svg width="250" height="155" viewBox="0 0 250 155" fill="none" xmlns="http://www.w3.org/2000/svg">
    <g clip-path="url(#clip0_1_3)">
        <path d="M11.905 0H0V11.905H11.905M11.905 0V11.905M11.905 0H23.81V11.905H11.905" stroke="white" stroke-opacity="0.06" stroke-width="0.238"/>
        <path d="M35.714 0H23.809V11.905H35.714M35.714 0V11.905M35.714 0H47.619M35.714 11.905H47.619M47.619 0V11.905M47.619 0H59.524M47.619 11.905H59.524M59.524 0V11.905M59.524 0H71.429M59.524 11.905H71.429M71.429 0V11.905M71.429 0H83.334V11.905H71.429" stroke="white" stroke-opacity="0.06" stroke-width="0.238"/>
        <path d="M95.238 0H83.333V11.905H95.238M95.238 0V11.905M95.238 0H107.143M95.238 11.905H107.143M107.143 0V11.905M107.143 0H119.048M107.143 11.905H119.048M119.048 0V11.905M119.048 0H130.953V11.905H119.048" stroke="white" stroke-opacity="0.06" stroke-width="0.238"/>
        <path d="M142.857 0H130.952V11.905H142.857M142.857 0V11.905M142.857 0H154.762M142.857 11.905H154.762M154.762 0V11.905M154.762 0H166.667M154.762 11.905H166.667M166.667 0V11.905M166.667 0H178.572V11.905H166.667" stroke="white" stroke-opacity="0.06" stroke-width="0.238"/>
        <path d="M190.476 0H178.571V11.905H190.476M190.476 0V11.905M190.476 0H202.381M190.476 11.905H202.381M202.381 0V11.905M202.381 0H214.286M202.381 11.905H214.286M214.286 0V11.905M214.286 0H226.191V11.905H214.286" stroke="white" stroke-opacity="0.06" stroke-width="0.238"/>
        <path d="M238.095 0H226.19V11.905H238.095M238.095 0V11.905M238.095 0H250V11.905H238.095M11.905 11.905H0V23.81H11.905M11.905 11.905V23.81M11.905 11.905H23.81V23.81H11.905" stroke="white" stroke-opacity="0.06" stroke-width="0.238"/>
        <path d="M23.809 11.905H35.714V23.81H23.809V11.905Z" fill="white" fill-opacity="0.05" stroke="white" stroke-opacity="0.06" stroke-width="0.238"/>
        <path d="M47.619 11.905H35.714V23.81H47.619M47.619 11.905V23.81M47.619 11.905H59.524M47.619 23.81H59.524M59.524 11.905V23.81M59.524 11.905H71.429M59.524 23.81H71.429M71.429 11.905V23.81M71.429 11.905H83.334V23.81H71.429" stroke="white" stroke-opacity="0.06" stroke-width="0.238"/>
        <path d="M95.238 11.905H83.333V23.81H95.238M95.238 11.905V23.81M95.238 11.905H107.143V23.81H95.238" stroke="white" stroke-opacity="0.06" stroke-width="0.238"/>
        <path d="M107.143 11.905H119.048V23.81H107.143V11.905Z" fill="white" fill-opacity="0.05" stroke="white" stroke-opacity="0.06" stroke-width="0.238"/>
        <path d="M119.048 11.905H130.953V23.81H119.048V11.905Z" stroke="white" stroke-opacity="0.06" stroke-width="0.238"/>
        <path d="M142.857 11.905H130.952V23.81H142.857M142.857 11.905V23.81M142.857 11.905H154.762M142.857 23.81H154.762M154.762 11.905V23.81M154.762 11.905H166.667M154.762 23.81H166.667M166.667 11.905V23.81M166.667 11.905H178.572V23.81H166.667" stroke="white" stroke-opacity="0.06" stroke-width="0.238"/>
        <path d="M190.476 11.905H178.571V23.81H190.476M190.476 11.905V23.81M190.476 11.905H202.381M190.476 23.81H202.381M202.381 11.905V23.81M202.381 11.905H214.286M202.381 23.81H214.286M214.286 11.905V23.81M214.286 11.905H226.191V23.81H214.286" stroke="white" stroke-opacity="0.06" stroke-width="0.238"/>
        <path d="M238.095 11.905H226.19V23.81H238.095M238.095 11.905V23.81M238.095 11.905H250V23.81H238.095M11.905 23.81H0V35.715H11.905M11.905 23.81V35.715M11.905 23.81H23.81V35.715H11.905" stroke="white" stroke-opacity="0.06" stroke-width="0.238"/>
        <path d="M35.714 23.81H23.809V35.715H35.714M35.714 23.81V35.715M35.714 23.81H47.619M35.714 35.715H47.619M47.619 23.81V35.715M47.619 23.81H59.524M47.619 35.715H59.524M59.524 23.81V35.715M59.524 23.81H71.429M59.524 35.715H71.429M71.429 23.81V35.715M71.429 23.81H83.334V35.715H71.429" stroke="white" stroke-opacity="0.06" stroke-width="0.238"/>
        <path d="M95.238 23.81H83.333V35.715H95.238M95.238 23.81V35.715M95.238 23.81H107.143M95.238 35.715H107.143M107.143 23.81V35.715M107.143 23.81H119.048M107.143 35.715H119.048M119.048 23.81V35.715M119.048 23.81H130.953V35.715H119.048" stroke="white" stroke-opacity="0.06" stroke-width="0.238"/>
        <path d="M142.857 23.81H130.952V35.715H142.857M142.857 23.81V35.715M142.857 23.81H154.762M142.857 35.715H154.762M154.762 23.81V35.715M154.762 23.81H166.667M154.762 35.715H166.667M166.667 23.81V35.715M166.667 23.81H178.572V35.715H166.667" stroke="white" stroke-opacity="0.06" stroke-width="0.238"/>
        <path d="M178.571 23.81H190.476V35.715H178.571V23.81Z" stroke="white" stroke-opacity="0.06" stroke-width="0.238"/>
        <path d="M190.476 23.81H202.381V35.715H190.476V23.81Z" fill="white" fill-opacity="0.05" stroke="white" stroke-opacity="0.06" stroke-width="0.238"/>
        <path d="M214.286 23.81H202.381V35.715H214.286M214.286 23.81V35.715M214.286 23.81H226.191V35.715H214.286" stroke="white" stroke-opacity="0.06" stroke-width="0.238"/>
        <path d="M238.095 23.81H226.19V35.715H238.095M238.095 23.81V35.715M238.095 23.81H250V35.715H238.095M11.905 35.714H0V47.619H11.905M11.905 35.714V47.619M11.905 35.714H23.81V47.619H11.905" stroke="white" stroke-opacity="0.06" stroke-width="0.238"/>
        <path d="M35.714 35.714H23.809V47.619H35.714M35.714 35.714V47.619M35.714 35.714H47.619M35.714 47.619H47.619M47.619 35.714V47.619M47.619 35.714H59.524M47.619 47.619H59.524M59.524 35.714V47.619M59.524 35.714H71.429M59.524 47.619H71.429M71.429 35.714V47.619M71.429 35.714H83.334V47.619H71.429" stroke="white" stroke-opacity="0.06" stroke-width="0.238"/>
        <path d="M95.238 35.714H83.333V47.619H95.238M95.238 35.714V47.619M95.238 35.714H107.143M95.238 47.619H107.143M107.143 35.714V47.619M107.143 35.714H119.048M107.143 47.619H119.048M119.048 35.714V47.619M119.048 35.714H130.953V47.619H119.048" stroke="white" stroke-opacity="0.06" stroke-width="0.238"/>
        <path d="M142.857 35.714H130.952V47.619H142.857M142.857 35.714V47.619M142.857 35.714H154.762M142.857 47.619H154.762M154.762 35.714V47.619M154.762 35.714H166.667M154.762 47.619H166.667M166.667 35.714V47.619M166.667 35.714H178.572V47.619H166.667" stroke="white" stroke-opacity="0.06" stroke-width="0.238"/>
        <path d="M190.476 35.714H178.571V47.619H190.476M190.476 35.714V47.619M190.476 35.714H202.381M190.476 47.619H202.381M202.381 35.714V47.619M202.381 35.714H214.286M202.381 47.619H214.286M214.286 35.714V47.619M214.286 35.714H226.191V47.619H214.286" stroke="white" stroke-opacity="0.06" stroke-width="0.238"/>
        <path d="M238.095 35.714H226.19V47.619H238.095M238.095 35.714V47.619M238.095 35.714H250V47.619H238.095M11.905 47.619H0V59.524H11.905M11.905 47.619V59.524M11.905 47.619H23.81V59.524H11.905" stroke="white" stroke-opacity="0.06" stroke-width="0.238"/>
        <path d="M23.809 47.619H35.714V59.524H23.809V47.619Z" stroke="white" stroke-opacity="0.06" stroke-width="0.238"/>
        <path d="M35.714 47.619H47.619V59.524H35.714V47.619Z" fill="white" fill-opacity="0.05" stroke="white" stroke-opacity="0.06" stroke-width="0.238"/>
        <path d="M59.524 47.619H47.619V59.524H59.524M59.524 47.619V59.524M59.524 47.619H71.429M59.524 59.524H71.429M71.429 47.619V59.524M71.429 47.619H83.334V59.524H71.429" stroke="white" stroke-opacity="0.06" stroke-width="0.238"/>
        <path d="M95.238 47.619H83.333V59.524H95.238M95.238 47.619V59.524M95.238 47.619H107.143M95.238 59.524H107.143M107.143 47.619V59.524M107.143 47.619H119.048M107.143 59.524H119.048M119.048 47.619V59.524M119.048 47.619H130.953V59.524H119.048" stroke="white" stroke-opacity="0.06" stroke-width="0.238"/>
        <path d="M130.952 47.619H142.857V59.524H130.952V47.619Z" stroke="white" stroke-opacity="0.06" stroke-width="0.238"/>
        <path d="M142.857 47.619H154.762V59.524H142.857V47.619Z" fill="white" fill-opacity="0.05" stroke="white" stroke-opacity="0.06" stroke-width="0.238"/>
        <path d="M166.667 47.619H154.762V59.524H166.667M166.667 47.619V59.524M166.667 47.619H178.572V59.524H166.667" stroke="white" stroke-opacity="0.06" stroke-width="0.238"/>
        <path d="M190.476 47.619H178.571V59.524H190.476M190.476 47.619V59.524M190.476 47.619H202.381M190.476 59.524H202.381M202.381 47.619V59.524M202.381 47.619H214.286M202.381 59.524H214.286M214.286 47.619V59.524M214.286 47.619H226.191V59.524H214.286" stroke="white" stroke-opacity="0.06" stroke-width="0.238"/>
        <path d="M238.095 47.619H226.19V59.524H238.095M238.095 47.619V59.524M238.095 47.619H250V59.524H238.095M11.905 59.524H0V71.429H11.905M11.905 59.524V71.429M11.905 59.524H23.81V71.429H11.905" stroke="white" stroke-opacity="0.06" stroke-width="0.238"/>
        <path d="M35.714 59.524H23.809V71.429H35.714M35.714 59.524V71.429M35.714 59.524H47.619M35.714 71.429H47.619M47.619 59.524V71.429M47.619 59.524H59.524M47.619 71.429H59.524M59.524 59.524V71.429M59.524 59.524H71.429M59.524 71.429H71.429M71.429 59.524V71.429M71.429 59.524H83.334V71.429H71.429" stroke="white" stroke-opacity="0.06" stroke-width="0.238"/>
        <path d="M95.238 59.524H83.333V71.429H95.238M95.238 59.524V71.429M95.238 59.524H107.143M95.238 71.429H107.143M107.143 59.524V71.429M107.143 59.524H119.048M107.143 71.429H119.048M119.048 59.524V71.429M119.048 59.524H130.953V71.429H119.048" stroke="white" stroke-opacity="0.06" stroke-width="0.238"/>
        <path d="M142.857 59.524H130.952V71.429H142.857M142.857 59.524V71.429M142.857 59.524H154.762M142.857 71.429H154.762M154.762 59.524V71.429M154.762 59.524H166.667M154.762 71.429H166.667M166.667 59.524V71.429M166.667 59.524H178.572V71.429H166.667" stroke="white" stroke-opacity="0.06" stroke-width="0.238"/>
        <path d="M190.476 59.524H178.571V71.429H190.476M190.476 59.524V71.429M190.476 59.524H202.381M190.476 71.429H202.381M202.381 59.524V71.429M202.381 59.524H214.286V71.429H202.381" stroke="white" stroke-opacity="0.06" stroke-width="0.238"/>
        <path d="M214.286 59.524H226.191V71.429H214.286V59.524Z" fill="white" fill-opacity="0.05" stroke="white" stroke-opacity="0.06" stroke-width="0.238"/>
        <path d="M238.095 59.524H226.19V71.429H238.095M238.095 59.524V71.429M238.095 59.524H250V71.429H238.095M11.905 71.429H0V83.334H11.905M11.905 71.429V83.334M11.905 71.429H23.81V83.334H11.905" stroke="white" stroke-opacity="0.06" stroke-width="0.238"/>
        <path d="M35.714 71.429H23.809V83.334H35.714M35.714 71.429V83.334M35.714 71.429H47.619M35.714 83.334H47.619M47.619 71.429V83.334M47.619 71.429H59.524M47.619 83.334H59.524M59.524 71.429V83.334M59.524 71.429H71.429M59.524 83.334H71.429M71.429 71.429V83.334M71.429 71.429H83.334V83.334H71.429" stroke="white" stroke-opacity="0.06" stroke-width="0.238"/>
        <path d="M95.238 71.429H83.333V83.334H95.238M95.238 71.429V83.334M95.238 71.429H107.143M95.238 83.334H107.143M107.143 71.429V83.334M107.143 71.429H119.048M107.143 83.334H119.048M119.048 71.429V83.334M119.048 71.429H130.953V83.334H119.048" stroke="white" stroke-opacity="0.06" stroke-width="0.238"/>
        <path d="M142.857 71.429H130.952V83.334H142.857M142.857 71.429V83.334M142.857 71.429H154.762M142.857 83.334H154.762M154.762 71.429V83.334M154.762 71.429H166.667M154.762 83.334H166.667M166.667 71.429V83.334M166.667 71.429H178.572V83.334H166.667" stroke="white" stroke-opacity="0.06" stroke-width="0.238"/>
        <path d="M190.476 71.429H178.571V83.334H190.476M190.476 71.429V83.334M190.476 71.429H202.381M190.476 83.334H202.381M202.381 71.429V83.334M202.381 71.429H214.286M202.381 83.334H214.286M214.286 71.429V83.334M214.286 71.429H226.191V83.334H214.286" stroke="white" stroke-opacity="0.06" stroke-width="0.238"/>
        <path d="M238.095 71.429H226.19V83.334H238.095M238.095 71.429V83.334M238.095 71.429H250V83.334H238.095M11.905 83.333H0V95.238H11.905M11.905 83.333V95.238M11.905 83.333H23.81V95.238H11.905" stroke="white" stroke-opacity="0.06" stroke-width="0.238"/>
        <path d="M35.714 83.333H23.809V95.238H35.714M35.714 83.333V95.238M35.714 83.333H47.619M35.714 95.238H47.619M47.619 83.333V95.238M47.619 83.333H59.524M47.619 95.238H59.524M59.524 83.333V95.238M59.524 83.333H71.429M59.524 95.238H71.429M71.429 83.333V95.238M71.429 83.333H83.334V95.238H71.429" stroke="white" stroke-opacity="0.06" stroke-width="0.238"/>
        <path d="M83.333 83.333H95.238V95.238H83.333V83.333Z" stroke="white" stroke-opacity="0.06" stroke-width="0.238"/>
        <path d="M95.238 83.333H107.143V95.238H95.238V83.333Z" fill="white" fill-opacity="0.05" stroke="white" stroke-opacity="0.06" stroke-width="0.238"/>
        <path d="M119.048 83.333H107.143V95.238H119.048M119.048 83.333V95.238M119.048 83.333H130.953V95.238H119.048" stroke="white" stroke-opacity="0.06" stroke-width="0.238"/>
        <path d="M142.857 83.333H130.952V95.238H142.857M142.857 83.333V95.238M142.857 83.333H154.762M142.857 95.238H154.762M154.762 83.333V95.238M154.762 83.333H166.667M154.762 95.238H166.667M166.667 83.333V95.238M166.667 83.333H178.572V95.238H166.667" stroke="white" stroke-opacity="0.06" stroke-width="0.238"/>
        <path d="M190.476 83.333H178.571V95.238H190.476M190.476 83.333V95.238M190.476 83.333H202.381M190.476 95.238H202.381M202.381 83.333V95.238M202.381 83.333H214.286M202.381 95.238H214.286M214.286 83.333V95.238M214.286 83.333H226.191V95.238H214.286" stroke="white" stroke-opacity="0.06" stroke-width="0.238"/>
        <path d="M238.095 83.333H226.19V95.238H238.095M238.095 83.333V95.238M238.095 83.333H250V95.238H238.095M11.905 95.238H0V107.143H11.905M11.905 95.238V107.143M11.905 95.238H23.81V107.143H11.905" stroke="white" stroke-opacity="0.06" stroke-width="0.238"/>
        <path d="M35.714 95.238H23.809V107.143H35.714M35.714 95.238V107.143M35.714 95.238H47.619V107.143H35.714" stroke="white" stroke-opacity="0.06" stroke-width="0.238"/>
        <path d="M47.619 95.238H59.524V107.143H47.619V95.238Z" fill="white" fill-opacity="0.05" stroke="white" stroke-opacity="0.06" stroke-width="0.238"/>
        <path d="M71.429 95.238H59.524V107.143H71.429M71.429 95.238V107.143M71.429 95.238H83.334V107.143H71.429" stroke="white" stroke-opacity="0.06" stroke-width="0.238"/>
        <path d="M95.238 95.238H83.333V107.143H95.238M95.238 95.238V107.143M95.238 95.238H107.143M95.238 107.143H107.143M107.143 95.238V107.143M107.143 95.238H119.048M107.143 107.143H119.048M119.048 95.238V107.143M119.048 95.238H130.953V107.143H119.048" stroke="white" stroke-opacity="0.06" stroke-width="0.238"/>
        <path d="M142.857 95.238H130.952V107.143H142.857M142.857 95.238V107.143M142.857 95.238H154.762M142.857 107.143H154.762M154.762 95.238V107.143M154.762 95.238H166.667M154.762 107.143H166.667M166.667 95.238V107.143M166.667 95.238H178.572V107.143H166.667" stroke="white" stroke-opacity="0.06" stroke-width="0.238"/>
        <path d="M190.476 95.238H178.571V107.143H190.476M190.476 95.238V107.143M190.476 95.238H202.381M190.476 107.143H202.381M202.381 95.238V107.143M202.381 95.238H214.286M202.381 107.143H214.286M214.286 95.238V107.143M214.286 95.238H226.191V107.143H214.286" stroke="white" stroke-opacity="0.06" stroke-width="0.238"/>
        <path d="M238.095 95.238H226.19V107.143H238.095M238.095 95.238V107.143M238.095 95.238H250V107.143H238.095M11.905 107.143H0V119.048H11.905M11.905 107.143V119.048M11.905 107.143H23.81V119.048H11.905" stroke="white" stroke-opacity="0.06" stroke-width="0.238"/>
        <path d="M35.714 107.143H23.809V119.048H35.714M35.714 107.143V119.048M35.714 107.143H47.619M35.714 119.048H47.619M47.619 107.143V119.048M47.619 107.143H59.524M47.619 119.048H59.524M59.524 107.143V119.048M59.524 107.143H71.429M59.524 119.048H71.429M71.429 107.143V119.048M71.429 107.143H83.334V119.048H71.429" stroke="white" stroke-opacity="0.06" stroke-width="0.238"/>
        <path d="M95.238 107.143H83.333V119.048H95.238M95.238 107.143V119.048M95.238 107.143H107.143M95.238 119.048H107.143M107.143 107.143V119.048M107.143 107.143H119.048M107.143 119.048H119.048M119.048 107.143V119.048M119.048 107.143H130.953V119.048H119.048" stroke="white" stroke-opacity="0.06" stroke-width="0.238"/>
        <path d="M142.857 107.143H130.952V119.048H142.857M142.857 107.143V119.048M142.857 107.143H154.762M142.857 119.048H154.762M154.762 107.143V119.048M154.762 107.143H166.667M154.762 119.048H166.667M166.667 107.143V119.048M166.667 107.143H178.572V119.048H166.667" stroke="white" stroke-opacity="0.06" stroke-width="0.238"/>
        <path d="M190.476 107.143H178.571V119.048H190.476M190.476 107.143V119.048M190.476 107.143H202.381M190.476 119.048H202.381M202.381 107.143V119.048M202.381 107.143H214.286M202.381 119.048H214.286M214.286 107.143V119.048M214.286 107.143H226.191V119.048H214.286" stroke="white" stroke-opacity="0.06" stroke-width="0.238"/>
        <path d="M238.095 107.143H226.19V119.048H238.095M238.095 107.143V119.048M238.095 107.143H250V119.048H238.095M11.905 119.048H0V130.953H11.905M11.905 119.048V130.953M11.905 119.048H23.81V130.953H11.905" stroke="white" stroke-opacity="0.06" stroke-width="0.238"/>
        <path d="M35.714 119.048H23.809V130.953H35.714M35.714 119.048V130.953M35.714 119.048H47.619M35.714 130.953H47.619M47.619 119.048V130.953M47.619 119.048H59.524M47.619 130.953H59.524M59.524 119.048V130.953M59.524 119.048H71.429M59.524 130.953H71.429M71.429 119.048V130.953M71.429 119.048H83.334V130.953H71.429" stroke="white" stroke-opacity="0.06" stroke-width="0.238"/>
        <path d="M95.238 119.048H83.333V130.953H95.238M95.238 119.048V130.953M95.238 119.048H107.143M95.238 130.953H107.143M107.143 119.048V130.953M107.143 119.048H119.048M107.143 130.953H119.048M119.048 119.048V130.953M119.048 119.048H130.953V130.953H119.048" stroke="white" stroke-opacity="0.06" stroke-width="0.238"/>
        <path d="M142.857 119.048H130.952V130.953H142.857M142.857 119.048V130.953M142.857 119.048H154.762M142.857 130.953H154.762M154.762 119.048V130.953M154.762 119.048H166.667M154.762 130.953H166.667M166.667 119.048V130.953M166.667 119.048H178.572V130.953H166.667" stroke="white" stroke-opacity="0.06" stroke-width="0.238"/>
        <path d="M190.476 119.048H178.571V130.953H190.476M190.476 119.048V130.953M190.476 119.048H202.381M190.476 130.953H202.381M202.381 119.048V130.953M202.381 119.048H214.286M202.381 130.953H214.286M214.286 119.048V130.953M214.286 119.048H226.191V130.953H214.286" stroke="white" stroke-opacity="0.06" stroke-width="0.238"/>
        <path d="M238.095 119.048H226.19V130.953H238.095M238.095 119.048V130.953M238.095 119.048H250V130.953H238.095M11.905 130.952H0V142.857H11.905M11.905 130.952V142.857M11.905 130.952H23.81V142.857H11.905" stroke="white" stroke-opacity="0.06" stroke-width="0.238"/>
        <path d="M35.714 130.952H23.809V142.857H35.714M35.714 130.952V142.857M35.714 130.952H47.619M35.714 142.857H47.619M47.619 130.952V142.857M47.619 130.952H59.524M47.619 142.857H59.524M59.524 130.952V142.857M59.524 130.952H71.429M59.524 142.857H71.429M71.429 130.952V142.857M71.429 130.952H83.334V142.857H71.429" stroke="white" stroke-opacity="0.06" stroke-width="0.238"/>
        <path d="M95.238 130.952H83.333V142.857H95.238M95.238 130.952V142.857M95.238 130.952H107.143M95.238 142.857H107.143M107.143 130.952V142.857M107.143 130.952H119.048M107.143 142.857H119.048M119.048 130.952V142.857M119.048 130.952H130.953V142.857H119.048" stroke="white" stroke-opacity="0.06" stroke-width="0.238"/>
        <path d="M142.857 130.952H130.952V142.857H142.857M142.857 130.952V142.857M142.857 130.952H154.762M142.857 142.857H154.762M154.762 130.952V142.857M154.762 130.952H166.667M154.762 142.857H166.667M166.667 130.952V142.857M166.667 130.952H178.572V142.857H166.667" stroke="white" stroke-opacity="0.06" stroke-width="0.238"/>
        <path d="M190.476 130.952H178.571V142.857H190.476M190.476 130.952V142.857M190.476 130.952H202.381M190.476 142.857H202.381M202.381 130.952V142.857M202.381 130.952H214.286M202.381 142.857H214.286M214.286 130.952V142.857M214.286 130.952H226.191V142.857H214.286" stroke="white" stroke-opacity="0.06" stroke-width="0.238"/>
        <path d="M238.095 130.952H226.19V142.857H238.095M238.095 130.952V142.857M238.095 130.952H250V142.857H238.095M11.905 142.857H0V154.762H11.905M11.905 142.857V154.762M11.905 142.857H23.81V154.762H11.905" stroke="white" stroke-opacity="0.06" stroke-width="0.238"/>
        <path d="M35.714 142.857H23.809V154.762H35.714M35.714 142.857V154.762M35.714 142.857H47.619M35.714 154.762H47.619M47.619 142.857V154.762M47.619 142.857H59.524M47.619 154.762H59.524M59.524 142.857V154.762M59.524 142.857H71.429M59.524 154.762H71.429M71.429 142.857V154.762M71.429 142.857H83.334V154.762H71.429" stroke="white" stroke-opacity="0.06" stroke-width="0.238"/>
        <path d="M95.238 142.857H83.333V154.762H95.238M95.238 142.857V154.762M95.238 142.857H107.143M95.238 154.762H107.143M107.143 142.857V154.762M107.143 142.857H119.048M107.143 154.762H119.048M119.048 142.857V154.762M119.048 142.857H130.953V154.762H119.048" stroke="white" stroke-opacity="0.06" stroke-width="0.238"/>
        <path d="M142.857 142.857H130.952V154.762H142.857M142.857 142.857V154.762M142.857 142.857H154.762M142.857 154.762H154.762M154.762 142.857V154.762M154.762 142.857H166.667M154.762 154.762H166.667M166.667 142.857V154.762M166.667 142.857H178.572V154.762H166.667" stroke="white" stroke-opacity="0.06" stroke-width="0.238"/>
        <path d="M190.476 142.857H178.571V154.762H190.476M190.476 142.857V154.762M190.476 142.857H202.381M190.476 154.762H202.381M202.381 142.857V154.762M202.381 142.857H214.286M202.381 154.762H214.286M214.286 142.857V154.762M214.286 142.857H226.191V154.762H214.286" stroke="white" stroke-opacity="0.06" stroke-width="0.238"/>
        <path d="M238.095 142.857H226.19V154.762H238.095M238.095 142.857V154.762M238.095 142.857H250V154.762H238.095" stroke="white" stroke-opacity="0.06" stroke-width="0.238"/>
    </g>
    <defs>
        <clipPath id="clip0_1_3">
            <rect width="250" height="155" fill="white"/>
        </clipPath>
    </defs>
</svg>
